<mxfile host="Electron" agent="Mozilla/5.0 (Windows NT 10.0; Win64; x64) AppleWebKit/537.36 (KHTML, like Gecko) draw.io/24.7.8 Chrome/128.0.6613.36 Electron/32.0.1 Safari/537.36" version="24.7.8">
  <diagram name="Disco 架构设计" id="0yqKuD692wQG1iVpCDz8">
    <mxGraphModel dx="1886" dy="892" grid="1" gridSize="15" guides="1" tooltips="1" connect="1" arrows="1" fold="1" page="1" pageScale="1" pageWidth="1169" pageHeight="827" math="0" shadow="0">
      <root>
        <mxCell id="0" />
        <mxCell id="1" parent="0" />
        <mxCell id="qqrwFwxceFIh4p4f4kpS-3" value="Disco 服务器&lt;div style=&quot;font-size: 16px;&quot;&gt;Disco.Serverd&lt;/div&gt;" style="ellipse;shape=cloud;whiteSpace=wrap;html=1;fillColor=#4A148C;fontColor=#FFFFFF;fontSize=16;fontStyle=1" vertex="1" parent="1">
          <mxGeometry x="420" y="300" width="180" height="120" as="geometry" />
        </mxCell>
        <mxCell id="qqrwFwxceFIh4p4f4kpS-27" value="" style="group;fontSize=16;fontStyle=1" vertex="1" connectable="0" parent="1">
          <mxGeometry x="570" y="414" width="375" height="305" as="geometry" />
        </mxCell>
        <mxCell id="qqrwFwxceFIh4p4f4kpS-26" value="&lt;b style=&quot;font-size: 15px;&quot;&gt;&lt;font style=&quot;font-size: 15px;&quot;&gt;Disco&lt;/font&gt;&lt;/b&gt;&lt;div style=&quot;font-size: 15px;&quot;&gt;&lt;b style=&quot;&quot;&gt;&lt;font style=&quot;font-size: 15px;&quot;&gt;Notification Adapter Providers&lt;/font&gt;&lt;/b&gt;&lt;/div&gt;" style="ellipse;whiteSpace=wrap;html=1;aspect=fixed;strokeWidth=4;dashed=1;dashPattern=1 1;" vertex="1" parent="qqrwFwxceFIh4p4f4kpS-27">
          <mxGeometry x="42.5" y="15" width="290" height="290" as="geometry" />
        </mxCell>
        <mxCell id="qqrwFwxceFIh4p4f4kpS-20" value="HTTP Notification" style="verticalLabelPosition=bottom;sketch=0;html=1;fillColor=#A153A0;strokeColor=#ffffff;verticalAlign=top;align=center;points=[[0,0.5,0],[0.125,0.25,0],[0.25,0,0],[0.5,0,0],[0.75,0,0],[0.875,0.25,0],[1,0.5,0],[0.875,0.75,0],[0.75,1,0],[0.5,1,0],[0.125,0.75,0]];pointerEvents=1;shape=mxgraph.cisco_safe.compositeIcon;bgIcon=mxgraph.cisco_safe.design.blank_device;resIcon=mxgraph.cisco_safe.design.fabric_switch;fontStyle=1;labelBackgroundColor=default;" vertex="1" parent="qqrwFwxceFIh4p4f4kpS-27">
          <mxGeometry x="75" width="75" height="60" as="geometry" />
        </mxCell>
        <mxCell id="qqrwFwxceFIh4p4f4kpS-21" value="MQ Notification" style="verticalLabelPosition=bottom;sketch=0;html=1;fillColor=#A153A0;strokeColor=#ffffff;verticalAlign=top;align=center;points=[[0,0.5,0],[0.125,0.25,0],[0.25,0,0],[0.5,0,0],[0.75,0,0],[0.875,0.25,0],[1,0.5,0],[0.875,0.75,0],[0.75,1,0],[0.5,1,0],[0.125,0.75,0]];pointerEvents=1;shape=mxgraph.cisco_safe.compositeIcon;bgIcon=mxgraph.cisco_safe.design.blank_device;resIcon=mxgraph.cisco_safe.design.fabric_switch;fontStyle=1;labelBackgroundColor=default;" vertex="1" parent="qqrwFwxceFIh4p4f4kpS-27">
          <mxGeometry x="225" width="75" height="60" as="geometry" />
        </mxCell>
        <mxCell id="qqrwFwxceFIh4p4f4kpS-22" value="Zookeeper&lt;span style=&quot;&quot;&gt;&amp;nbsp;Notification&lt;/span&gt;" style="verticalLabelPosition=bottom;sketch=0;html=1;fillColor=#A153A0;strokeColor=#ffffff;verticalAlign=top;align=center;points=[[0,0.5,0],[0.125,0.25,0],[0.25,0,0],[0.5,0,0],[0.75,0,0],[0.875,0.25,0],[1,0.5,0],[0.875,0.75,0],[0.75,1,0],[0.5,1,0],[0.125,0.75,0]];pointerEvents=1;shape=mxgraph.cisco_safe.compositeIcon;bgIcon=mxgraph.cisco_safe.design.blank_device;resIcon=mxgraph.cisco_safe.design.fabric_switch;fontStyle=1;labelBackgroundColor=default;" vertex="1" parent="qqrwFwxceFIh4p4f4kpS-27">
          <mxGeometry x="75" y="245" width="75" height="60" as="geometry" />
        </mxCell>
        <mxCell id="qqrwFwxceFIh4p4f4kpS-23" value="&lt;span style=&quot;&quot;&gt;Consul Notification&lt;/span&gt;" style="verticalLabelPosition=bottom;sketch=0;html=1;fillColor=#A153A0;strokeColor=#ffffff;verticalAlign=top;align=center;points=[[0,0.5,0],[0.125,0.25,0],[0.25,0,0],[0.5,0,0],[0.75,0,0],[0.875,0.25,0],[1,0.5,0],[0.875,0.75,0],[0.75,1,0],[0.5,1,0],[0.125,0.75,0]];pointerEvents=1;shape=mxgraph.cisco_safe.compositeIcon;bgIcon=mxgraph.cisco_safe.design.blank_device;resIcon=mxgraph.cisco_safe.design.fabric_switch;fontStyle=1;labelBackgroundColor=default;" vertex="1" parent="qqrwFwxceFIh4p4f4kpS-27">
          <mxGeometry y="120" width="75" height="60" as="geometry" />
        </mxCell>
        <mxCell id="qqrwFwxceFIh4p4f4kpS-24" value="&lt;span style=&quot;&quot;&gt;MQTT Notification&lt;/span&gt;" style="verticalLabelPosition=bottom;sketch=0;html=1;fillColor=#A153A0;strokeColor=#ffffff;verticalAlign=top;align=center;points=[[0,0.5,0],[0.125,0.25,0],[0.25,0,0],[0.5,0,0],[0.75,0,0],[0.875,0.25,0],[1,0.5,0],[0.875,0.75,0],[0.75,1,0],[0.5,1,0],[0.125,0.75,0]];pointerEvents=1;shape=mxgraph.cisco_safe.compositeIcon;bgIcon=mxgraph.cisco_safe.design.blank_device;resIcon=mxgraph.cisco_safe.design.fabric_switch;fontStyle=1;labelBackgroundColor=default;" vertex="1" parent="qqrwFwxceFIh4p4f4kpS-27">
          <mxGeometry x="300" y="120" width="75" height="60" as="geometry" />
        </mxCell>
        <mxCell id="qqrwFwxceFIh4p4f4kpS-25" value="&lt;span style=&quot;&quot;&gt;Socket Notification&lt;/span&gt;" style="verticalLabelPosition=bottom;sketch=0;html=1;fillColor=#A153A0;strokeColor=#ffffff;verticalAlign=top;align=center;points=[[0,0.5,0],[0.125,0.25,0],[0.25,0,0],[0.5,0,0],[0.75,0,0],[0.875,0.25,0],[1,0.5,0],[0.875,0.75,0],[0.75,1,0],[0.5,1,0],[0.125,0.75,0]];pointerEvents=1;shape=mxgraph.cisco_safe.compositeIcon;bgIcon=mxgraph.cisco_safe.design.blank_device;resIcon=mxgraph.cisco_safe.design.fabric_switch;fontStyle=1;labelBackgroundColor=default;" vertex="1" parent="qqrwFwxceFIh4p4f4kpS-27">
          <mxGeometry x="225" y="245" width="75" height="60" as="geometry" />
        </mxCell>
        <mxCell id="qqrwFwxceFIh4p4f4kpS-28" value="" style="group" vertex="1" connectable="0" parent="1">
          <mxGeometry x="600" y="30" width="315" height="270" as="geometry" />
        </mxCell>
        <mxCell id="qqrwFwxceFIh4p4f4kpS-18" value="&lt;div style=&quot;font-size: 15px;&quot;&gt;Disco&lt;/div&gt;Storage Providers" style="ellipse;whiteSpace=wrap;html=1;aspect=fixed;strokeWidth=4;dashed=1;dashPattern=1 1;strokeColor=#4A148C;fontStyle=1;fontSize=15;" vertex="1" parent="qqrwFwxceFIh4p4f4kpS-28">
          <mxGeometry x="45" y="30" width="225" height="225" as="geometry" />
        </mxCell>
        <mxCell id="qqrwFwxceFIh4p4f4kpS-12" value="RDBMS" style="verticalLabelPosition=bottom;sketch=0;html=1;fillColor=#A153A0;strokeColor=#ffffff;verticalAlign=top;align=center;points=[[0,0.5,0],[0.125,0.25,0],[0.25,0,0],[0.5,0,0],[0.75,0,0],[0.875,0.25,0],[1,0.5,0],[0.875,0.75,0],[0.75,1,0],[0.5,1,0],[0.125,0.75,0]];pointerEvents=1;shape=mxgraph.cisco_safe.compositeIcon;bgIcon=mxgraph.cisco_safe.design.blank_device;resIcon=mxgraph.cisco_safe.design.aci_controller;fontStyle=1;labelBackgroundColor=default;" vertex="1" parent="qqrwFwxceFIh4p4f4kpS-28">
          <mxGeometry x="120" width="75" height="60" as="geometry" />
        </mxCell>
        <mxCell id="qqrwFwxceFIh4p4f4kpS-13" value="Cache" style="verticalLabelPosition=bottom;sketch=0;html=1;fillColor=#A153A0;strokeColor=#ffffff;verticalAlign=top;align=center;points=[[0,0.5,0],[0.125,0.25,0],[0.25,0,0],[0.5,0,0],[0.75,0,0],[0.875,0.25,0],[1,0.5,0],[0.875,0.75,0],[0.75,1,0],[0.5,1,0],[0.125,0.75,0]];pointerEvents=1;shape=mxgraph.cisco_safe.compositeIcon;bgIcon=mxgraph.cisco_safe.design.blank_device;resIcon=mxgraph.cisco_safe.design.aci_controller;fontStyle=1;labelBackgroundColor=default;" vertex="1" parent="qqrwFwxceFIh4p4f4kpS-28">
          <mxGeometry y="90" width="75" height="60" as="geometry" />
        </mxCell>
        <mxCell id="qqrwFwxceFIh4p4f4kpS-14" value="Object Storage" style="verticalLabelPosition=bottom;sketch=0;html=1;fillColor=#A153A0;strokeColor=#ffffff;verticalAlign=top;align=center;points=[[0,0.5,0],[0.125,0.25,0],[0.25,0,0],[0.5,0,0],[0.75,0,0],[0.875,0.25,0],[1,0.5,0],[0.875,0.75,0],[0.75,1,0],[0.5,1,0],[0.125,0.75,0]];pointerEvents=1;shape=mxgraph.cisco_safe.compositeIcon;bgIcon=mxgraph.cisco_safe.design.blank_device;resIcon=mxgraph.cisco_safe.design.aci_controller;fontStyle=1;labelBackgroundColor=default;" vertex="1" parent="qqrwFwxceFIh4p4f4kpS-28">
          <mxGeometry x="180" y="210" width="75" height="60" as="geometry" />
        </mxCell>
        <mxCell id="qqrwFwxceFIh4p4f4kpS-16" value="L/NFS" style="verticalLabelPosition=bottom;sketch=0;html=1;fillColor=#A153A0;strokeColor=#ffffff;verticalAlign=top;align=center;points=[[0,0.5,0],[0.125,0.25,0],[0.25,0,0],[0.5,0,0],[0.75,0,0],[0.875,0.25,0],[1,0.5,0],[0.875,0.75,0],[0.75,1,0],[0.5,1,0],[0.125,0.75,0]];pointerEvents=1;shape=mxgraph.cisco_safe.compositeIcon;bgIcon=mxgraph.cisco_safe.design.blank_device;resIcon=mxgraph.cisco_safe.design.aci_controller;fontStyle=1;labelBackgroundColor=default;" vertex="1" parent="qqrwFwxceFIh4p4f4kpS-28">
          <mxGeometry x="60" y="210" width="75" height="60" as="geometry" />
        </mxCell>
        <mxCell id="qqrwFwxceFIh4p4f4kpS-17" value="Document DB" style="verticalLabelPosition=bottom;sketch=0;html=1;fillColor=#A153A0;strokeColor=#ffffff;verticalAlign=top;align=center;points=[[0,0.5,0],[0.125,0.25,0],[0.25,0,0],[0.5,0,0],[0.75,0,0],[0.875,0.25,0],[1,0.5,0],[0.875,0.75,0],[0.75,1,0],[0.5,1,0],[0.125,0.75,0]];pointerEvents=1;shape=mxgraph.cisco_safe.compositeIcon;bgIcon=mxgraph.cisco_safe.design.blank_device;resIcon=mxgraph.cisco_safe.design.aci_controller;fontStyle=1;labelBackgroundColor=default;" vertex="1" parent="qqrwFwxceFIh4p4f4kpS-28">
          <mxGeometry x="240" y="90" width="75" height="60" as="geometry" />
        </mxCell>
        <mxCell id="qqrwFwxceFIh4p4f4kpS-36" value="" style="group" vertex="1" connectable="0" parent="1">
          <mxGeometry x="30" y="180" width="285" height="375" as="geometry" />
        </mxCell>
        <mxCell id="qqrwFwxceFIh4p4f4kpS-35" value="&lt;b style=&quot;font-size: 16px;&quot;&gt;&lt;font style=&quot;font-size: 16px;&quot;&gt;Disco&lt;/font&gt;&lt;/b&gt;&lt;div style=&quot;font-size: 16px;&quot;&gt;&lt;b style=&quot;&quot;&gt;&lt;font style=&quot;font-size: 16px;&quot;&gt;Application&lt;/font&gt;&lt;/b&gt;&lt;/div&gt;" style="rounded=1;whiteSpace=wrap;html=1;strokeWidth=4;labelPosition=center;verticalLabelPosition=top;align=center;verticalAlign=bottom;spacingTop=0;" vertex="1" parent="qqrwFwxceFIh4p4f4kpS-36">
          <mxGeometry width="285" height="375" as="geometry" />
        </mxCell>
        <mxCell id="qqrwFwxceFIh4p4f4kpS-29" value="Disco SDKs" style="verticalLabelPosition=bottom;sketch=0;html=1;fillColor=#A153A0;strokeColor=#ffffff;verticalAlign=top;align=center;points=[[0,0.5,0],[0.125,0.25,0],[0.25,0,0],[0.5,0,0],[0.75,0,0],[0.875,0.25,0],[1,0.5,0],[0.875,0.75,0],[0.75,1,0],[0.5,1,0],[0.125,0.75,0]];pointerEvents=1;shape=mxgraph.cisco_safe.compositeIcon;bgIcon=mxgraph.cisco_safe.design.blank_device;resIcon=mxgraph.cisco_safe.design.access_point;fontStyle=1" vertex="1" parent="qqrwFwxceFIh4p4f4kpS-36">
          <mxGeometry x="45" y="30" width="75" height="60" as="geometry" />
        </mxCell>
        <mxCell id="qqrwFwxceFIh4p4f4kpS-30" value="Disco Cluster Utilities" style="verticalLabelPosition=bottom;sketch=0;html=1;fillColor=#A153A0;strokeColor=#ffffff;verticalAlign=top;align=center;points=[[0,0.5,0],[0.125,0.25,0],[0.25,0,0],[0.5,0,0],[0.75,0,0],[0.875,0.25,0],[1,0.5,0],[0.875,0.75,0],[0.75,1,0],[0.5,1,0],[0.125,0.75,0]];pointerEvents=1;shape=mxgraph.cisco_safe.compositeIcon;bgIcon=mxgraph.cisco_safe.design.blank_device;resIcon=mxgraph.cisco_safe.design.access_point;fontStyle=1" vertex="1" parent="qqrwFwxceFIh4p4f4kpS-36">
          <mxGeometry x="45" y="150" width="75" height="60" as="geometry" />
        </mxCell>
        <mxCell id="qqrwFwxceFIh4p4f4kpS-31" value="Disco OpenAPI" style="verticalLabelPosition=bottom;sketch=0;html=1;fillColor=#A153A0;strokeColor=#ffffff;verticalAlign=top;align=center;points=[[0,0.5,0],[0.125,0.25,0],[0.25,0,0],[0.5,0,0],[0.75,0,0],[0.875,0.25,0],[1,0.5,0],[0.875,0.75,0],[0.75,1,0],[0.5,1,0],[0.125,0.75,0]];pointerEvents=1;shape=mxgraph.cisco_safe.compositeIcon;bgIcon=mxgraph.cisco_safe.design.blank_device;resIcon=mxgraph.cisco_safe.design.access_point;fontStyle=1" vertex="1" parent="qqrwFwxceFIh4p4f4kpS-36">
          <mxGeometry x="45" y="270" width="75" height="60" as="geometry" />
        </mxCell>
        <mxCell id="qqrwFwxceFIh4p4f4kpS-32" value="Disco Web" style="verticalLabelPosition=bottom;sketch=0;html=1;fillColor=#A153A0;strokeColor=#ffffff;verticalAlign=top;align=center;points=[[0,0.5,0],[0.125,0.25,0],[0.25,0,0],[0.5,0,0],[0.75,0,0],[0.875,0.25,0],[1,0.5,0],[0.875,0.75,0],[0.75,1,0],[0.5,1,0],[0.125,0.75,0]];pointerEvents=1;shape=mxgraph.cisco_safe.compositeIcon;bgIcon=mxgraph.cisco_safe.design.blank_device;resIcon=mxgraph.cisco_safe.design.access_point;fontStyle=1" vertex="1" parent="qqrwFwxceFIh4p4f4kpS-36">
          <mxGeometry x="165" y="30" width="75" height="60" as="geometry" />
        </mxCell>
        <mxCell id="qqrwFwxceFIh4p4f4kpS-33" value="Disco Agent" style="verticalLabelPosition=bottom;sketch=0;html=1;fillColor=#A153A0;strokeColor=#ffffff;verticalAlign=top;align=center;points=[[0,0.5,0],[0.125,0.25,0],[0.25,0,0],[0.5,0,0],[0.75,0,0],[0.875,0.25,0],[1,0.5,0],[0.875,0.75,0],[0.75,1,0],[0.5,1,0],[0.125,0.75,0]];pointerEvents=1;shape=mxgraph.cisco_safe.compositeIcon;bgIcon=mxgraph.cisco_safe.design.blank_device;resIcon=mxgraph.cisco_safe.design.access_point;fontStyle=1" vertex="1" parent="qqrwFwxceFIh4p4f4kpS-36">
          <mxGeometry x="165" y="150" width="75" height="60" as="geometry" />
        </mxCell>
        <mxCell id="qqrwFwxceFIh4p4f4kpS-34" value="Disco Messaging" style="verticalLabelPosition=bottom;sketch=0;html=1;fillColor=#A153A0;strokeColor=#ffffff;verticalAlign=top;align=center;points=[[0,0.5,0],[0.125,0.25,0],[0.25,0,0],[0.5,0,0],[0.75,0,0],[0.875,0.25,0],[1,0.5,0],[0.875,0.75,0],[0.75,1,0],[0.5,1,0],[0.125,0.75,0]];pointerEvents=1;shape=mxgraph.cisco_safe.compositeIcon;bgIcon=mxgraph.cisco_safe.design.blank_device;resIcon=mxgraph.cisco_safe.design.access_point;fontStyle=1" vertex="1" parent="qqrwFwxceFIh4p4f4kpS-36">
          <mxGeometry x="165" y="270" width="75" height="60" as="geometry" />
        </mxCell>
        <mxCell id="qqrwFwxceFIh4p4f4kpS-37" value="" style="html=1;shadow=0;dashed=0;align=center;verticalAlign=middle;shape=mxgraph.arrows2.jumpInArrow;dy=15;dx=38;arrowHead=55;fillColor=#4A148C;" vertex="1" parent="1">
          <mxGeometry x="510" y="200" width="100" height="100" as="geometry" />
        </mxCell>
        <mxCell id="qqrwFwxceFIh4p4f4kpS-38" value="" style="html=1;shadow=0;dashed=0;align=center;verticalAlign=middle;shape=mxgraph.arrows2.jumpInArrow;dy=15;dx=38;arrowHead=55;flipV=1;fillColor=#4A148C;" vertex="1" parent="1">
          <mxGeometry x="510" y="420" width="100" height="100" as="geometry" />
        </mxCell>
        <mxCell id="qqrwFwxceFIh4p4f4kpS-39" value="" style="html=1;shadow=0;dashed=0;align=center;verticalAlign=middle;shape=mxgraph.arrows2.stripedArrow;dy=0.6;dx=40;notch=25;flipH=1;fillColor=#4A148C;" vertex="1" parent="1">
          <mxGeometry x="330" y="332.5" width="100" height="70" as="geometry" />
        </mxCell>
      </root>
    </mxGraphModel>
  </diagram>
</mxfile>
